<?xml version="1.0" ?>
<!DOCTYPE svg PUBLIC '-//W3C//DTD SVG 1.1//EN' 'http://www.w3.org/Graphics/SVG/1.1/DTD/svg11.dtd'>
<svg fill="#ffffff" enable-background="new 0 0 1024 1024" height="1024px" id="Layer_1" version="1.1" viewBox="0 0 1024 1024" width="1024px" xml:space="preserve" xmlns="http://www.w3.org/2000/svg" xmlns:xlink="http://www.w3.org/1999/xlink">
<g id="Background">
<path d="M983.766,312.727c-25.785-60.972-62.694-115.728-109.705-162.744   C827.05,102.966,772.299,66.049,711.329,40.257C648.194,13.548,581.14,0.004,512,0c-69.104,0-136.155,13.54-199.289,40.243   c-60.969,25.787-115.721,62.699-162.735,109.71c-47.014,47.011-83.929,101.761-109.72,162.728   C13.548,375.814,0.004,442.865,0,511.97c-0.004,69.109,13.533,136.165,40.234,199.304   c25.785,60.973,62.696,115.728,109.707,162.743c47.011,47.018,101.762,83.935,162.732,109.727   c63.136,26.708,130.19,40.253,199.323,40.257h0.009c69.104,0,136.153-13.54,199.288-40.243   c60.969-25.787,115.72-62.699,162.733-109.709c47.013-47.01,83.929-101.76,109.72-162.728   c26.708-63.134,40.251-130.186,40.255-199.29C1024.004,442.921,1010.467,375.866,983.766,312.727z M512.004,976.328h-0.03   c-124.026-0.007-240.627-48.313-328.323-136.019C95.957,752.604,47.665,635.999,47.672,511.973   c0.015-256.016,208.312-464.3,464.356-464.3c124.026,0.007,240.626,48.312,328.32,136.017   c87.695,87.706,135.986,204.311,135.979,328.337C976.313,768.043,768.018,976.328,512.004,976.328z" />







                     </g>
<g id="Tumblr">
<g id="Tumblr_1_">
<path d="M661.084,351.943v101.25l-120.25,0.083c0,5.778,0.002,11.558-0.001,17.336    c-0.007,13.984-0.001,27.971,0.003,41.956c0.006,17.059-0.009,34.116-0.007,51.176c0.002,12.755,0.032,25.51,0.021,38.264    c-0.017,19.464,1.221,40.189,11.955,57.082c2.877,4.527,6.644,8.568,10.859,11.887c5.334,4.198,12.148,6.772,18.852,7.759    c2.864,0.429,5.78,0.683,8.725,0.793c11.772,0.44,23.97-1.402,34.961-3.467c15.436-2.897,30.54-7.727,45.299-13.034    c0,0,0,115.333,0,115.334c0,1.439-30.247,6.891-33.253,7.499c-11.082,2.244-22.233,4.182-33.452,5.605    c-39.21,4.979-79.185,3.102-116.501-10.668c-27.896-10.292-49.052-25.938-61.9-53.282    c-17.852-37.987-16.062-77.156-15.909-118.125c0.083-22.247,0.063-44.499,0.028-66.745c-0.029-19.883-0.038-39.766-0.021-59.646    c0.008-9.832,0.042-19.665,0.016-29.497c0-0.159-0.006-0.317-0.007-0.476h-58v-100c0,0,96,11,110-123h78v122L661.084,351.943" />







        </g>
        </g>
    </svg>